<?xml version="1.0" standalone="no"?>
<!DOCTYPE svg PUBLIC "-//W3C//DTD SVG 20010904//EN"
 "http://www.w3.org/TR/2001/REC-SVG-20010904/DTD/svg10.dtd">
<svg version="1.0" xmlns="http://www.w3.org/2000/svg"
 width="259.000000pt" height="194.000000pt" viewBox="0 0 259.000000 194.000000"
 preserveAspectRatio="xMidYMid meet">

<g transform="translate(0.000000,194.000000) scale(0.100000,-0.100000)"
fill="#000000" stroke="none">
<path d="M1189 1735 c-3 -5 -9 -23 -13 -38 -5 -22 -11 -27 -24 -23 -16 6 -16
5 0 -7 14 -11 15 -16 5 -27 -9 -10 -9 -11 1 -6 6 4 12 2 12 -3 0 -14 -20 -14
-40 -1 -13 9 -13 10 0 10 12 0 12 2 2 9 -8 4 -13 11 -13 15 3 19 0 26 -11 26
-9 0 -9 -3 -1 -11 7 -7 8 -21 3 -40 -5 -16 -6 -29 -2 -29 4 -1 -5 -8 -20 -16
-16 -8 -28 -18 -29 -22 0 -4 -3 -16 -5 -27 -14 -61 -17 -98 -6 -91 8 4 10 2 6
-7 -3 -8 -1 -18 5 -21 5 -4 13 3 16 15 5 15 10 18 18 10 7 -7 6 -15 -3 -26 -8
-10 -9 -15 -1 -15 6 0 11 -12 11 -26 0 -23 1 -24 16 -10 9 9 12 21 7 28 -12
20 -12 38 -1 38 6 0 8 -7 5 -15 -8 -19 10 -30 27 -16 11 9 15 7 19 -10 5 -17
9 -19 26 -9 12 6 27 7 34 3 6 -4 17 -8 22 -8 6 -1 22 -6 36 -12 27 -12 39 -48
39 -121 0 -29 -3 -33 -22 -30 -20 3 -24 10 -29 68 -3 36 -7 56 -8 45 l-2 -20
-9 20 c-13 29 -13 -6 -1 -38 8 -20 6 -27 -7 -32 -16 -6 -16 -7 1 -16 9 -6 17
-15 17 -21 0 -7 -5 -6 -15 2 -10 9 -15 9 -15 1 0 -6 -7 -11 -16 -11 -13 0 -15
6 -9 28 5 22 4 25 -6 15 -20 -20 -26 -15 -21 18 3 22 7 27 13 18 10 -17 13 30
3 55 -10 25 -25 19 -19 -7 7 -27 -38 -125 -61 -134 -8 -3 -21 2 -27 12 -12 15
-16 14 -45 -16 -17 -17 -29 -36 -26 -41 3 -4 10 -6 15 -3 5 4 9 -7 9 -23 0
-19 5 -29 15 -29 18 0 20 43 3 50 -10 4 -10 7 0 18 14 15 43 3 50 -22 2 -9 -1
-8 -11 4 -19 23 -30 22 -15 -2 9 -15 19 -18 52 -13 24 3 47 13 54 24 7 10 18
18 24 18 6 0 -1 -15 -15 -33 -26 -34 -26 -34 -6 -54 16 -15 17 -20 5 -20 -8 0
-13 4 -11 8 12 19 -91 35 -112 17 -19 -16 -43 -19 -40 -6 1 6 -4 13 -10 15
-18 7 -16 -12 3 -31 15 -15 32 -19 79 -18 17 1 17 0 3 -4 -10 -3 -18 -10 -18
-15 0 -5 90 -8 210 -7 116 0 210 4 210 9 0 4 -15 10 -32 12 -27 3 -25 4 12 6
61 2 85 22 83 69 -1 29 0 31 4 8 3 -21 7 -25 13 -16 16 27 -40 108 -70 101 -8
-1 -18 -8 -22 -14 -6 -9 -8 -8 -8 1 0 7 -5 10 -10 7 -17 -10 -41 16 -66 70
-15 31 -24 42 -25 30 l0 -20 -10 20 c-7 14 -8 8 -4 -25 3 -24 11 -50 17 -57 6
-8 8 -16 5 -19 -3 -4 -15 9 -26 27 -16 27 -20 29 -18 11 1 -12 5 -22 9 -22 4
0 8 -4 8 -10 0 -5 -7 -10 -15 -10 -8 0 -15 8 -15 18 0 9 -3 28 -7 41 -4 16 -2
22 4 18 7 -5 9 0 6 13 -3 11 -9 17 -14 14 -5 -3 -9 9 -9 27 0 18 3 30 6 26 3
-3 15 4 26 15 19 19 19 19 39 -3 l19 -22 0 21 c0 12 -1 23 -2 25 -2 1 7 18 19
38 17 27 20 38 11 47 -9 9 -9 12 0 12 7 0 12 -5 12 -11 0 -5 5 -7 10 -4 6 3
10 1 10 -6 0 -7 3 -10 6 -6 3 3 15 -3 26 -13 18 -16 19 -21 7 -33 -20 -19 -48
-17 -55 5 -3 10 -9 16 -14 13 -9 -6 -6 -45 6 -84 7 -23 8 -24 15 -5 6 15 8 11
9 -16 l1 -35 13 45 c7 25 24 62 38 83 23 32 25 42 16 67 -5 17 -15 27 -21 23
-6 -3 -7 -1 -3 6 12 19 13 122 1 118 -5 -2 -10 -20 -10 -39 0 -20 -3 -39 -7
-43 -4 -4 -4 -14 -2 -23 4 -14 3 -13 -6 1 -9 14 -9 22 2 34 11 15 11 16 -4 10
-10 -3 -18 -2 -18 3 0 6 8 10 18 11 10 0 12 3 4 6 -6 2 -10 9 -7 14 4 5 -1 6
-10 3 -10 -4 -15 -2 -13 6 2 7 -5 14 -15 15 -14 3 -15 0 -8 -9 6 -7 8 -16 4
-19 -3 -4 -2 -7 4 -7 6 0 9 -9 6 -20 -3 -11 -1 -20 5 -20 6 0 9 -9 7 -20 -2
-12 3 -21 16 -25 11 -4 17 -10 14 -15 -3 -4 1 -7 8 -6 6 0 13 -3 14 -8 1 -5 7
-13 15 -17 10 -7 9 -9 -4 -9 -10 0 -18 5 -18 10 0 6 -6 10 -14 10 -19 0 -58
50 -52 67 3 7 1 13 -5 13 -6 0 -7 5 -4 10 3 6 1 10 -5 10 -6 0 -8 5 -5 10 3 6
1 10 -4 10 -6 0 -11 5 -11 11 0 5 6 7 13 3 7 -5 6 0 -3 11 -8 10 -14 19 -12
19 4 1 -27 76 -32 76 -2 0 -2 -9 1 -20 3 -12 0 -20 -6 -20 -7 0 -9 6 -5 13 5
9 4 9 -6 0 -8 -7 -15 -20 -16 -28 -2 -13 1 -14 12 -4 7 6 21 8 30 5 21 -8 13
-81 -11 -105 -16 -15 -17 -14 -10 19 3 19 9 43 12 54 3 12 1 16 -6 12 -14 -9
-51 2 -48 14 1 4 -2 7 -8 6 -5 0 -9 -8 -8 -16 1 -10 -6 -16 -17 -16 -14 0 -18
5 -15 17 3 9 -1 19 -9 22 -9 4 -13 1 -10 -6 7 -19 -35 -41 -52 -26 -8 6 -14 8
-14 3 0 -4 -6 -2 -12 4 -10 10 -10 15 0 21 8 5 12 19 10 32 -2 13 -6 20 -9 14z
m18 -107 c2 -26 9 -33 58 -57 38 -19 38 -20 10 -17 -16 2 -31 8 -33 14 -2 6
-10 8 -18 5 -10 -4 -17 2 -21 16 -4 16 -11 20 -27 16 -18 -5 -18 -4 -4 4 10 7
14 19 11 31 -4 15 -1 19 9 15 7 -3 15 -15 15 -27z m156 13 c11 -1 8 -31 -4
-31 -5 0 -8 4 -4 9 3 5 1 13 -5 16 -6 4 -10 3 -9 -2 6 -34 -2 -43 -41 -43 -49
0 -56 25 -7 27 26 2 28 0 12 -7 -16 -7 -17 -9 -3 -9 18 -1 34 16 24 26 -3 4
-23 6 -43 6 -32 -1 -34 0 -13 6 14 4 39 6 55 5 17 -2 33 -3 38 -3z m-113 -35
c0 -3 -7 -3 -15 0 -8 4 -15 13 -15 21 0 12 2 12 15 -1 8 -8 15 -17 15 -20z
m-105 4 c3 -5 2 -10 -4 -10 -5 0 -13 5 -16 10 -3 6 -2 10 4 10 5 0 13 -4 16
-10z m28 -27 c11 -6 9 -33 -3 -33 -5 0 -10 -11 -10 -24 0 -14 -4 -28 -10 -31
-15 -10 -12 28 5 52 10 14 12 24 5 28 -5 3 -10 1 -10 -4 0 -6 -5 -11 -11 -11
-5 0 -8 4 -4 9 3 5 0 13 -6 17 -8 5 -9 3 -4 -6 6 -10 3 -12 -13 -8 -30 8 -28
0 3 -12 14 -5 25 -15 25 -21 0 -8 -4 -8 -15 1 -8 6 -18 9 -23 7 -4 -3 -13 3
-20 14 -12 19 -6 24 21 20 4 0 7 4 7 9 0 9 42 5 63 -7z m251 -15 c-3 -4 0 -8
7 -8 7 0 9 -3 6 -7 -4 -3 -3 -11 1 -18 4 -6 -1 -2 -10 8 -10 11 -18 29 -18 41
0 16 2 18 9 6 6 -8 7 -18 5 -22z m-72 -10 c-7 -7 -12 -8 -12 -2 0 6 3 14 7 17
3 4 9 5 12 2 2 -3 -1 -11 -7 -17z m-22 2 c0 -5 -4 -10 -10 -10 -5 0 -10 5 -10
10 0 6 5 10 10 10 6 0 10 -4 10 -10z m-111 -9 c7 -5 9 -11 5 -14 -5 -3 -15 1
-22 9 -14 16 -5 18 17 5z m-135 -52 c-8 -16 -19 -29 -25 -29 -14 0 -7 32 11
48 8 8 9 11 3 7 -9 -4 -11 -1 -7 10 5 12 10 13 20 4 11 -9 11 -16 -2 -40z
m318 18 c-5 -20 -6 -20 -12 -2 -8 24 -17 8 -15 -27 1 -16 1 -28 -1 -28 -1 0
-13 4 -27 9 -18 7 -24 6 -24 -4 0 -8 5 -11 11 -8 6 3 5 0 -1 -7 -10 -11 -10
-17 -1 -29 7 -9 8 -13 4 -9 -5 4 -15 0 -23 -10 -13 -15 -13 -15 -4 4 6 12 8
23 6 26 -10 9 -12 88 -3 88 5 0 6 5 3 10 -4 6 7 8 30 5 19 -2 33 0 30 4 -3 5
3 7 14 4 13 -3 17 -11 13 -26z m-279 -3 c-2 -10 -4 -29 -5 -41 -3 -27 -11 -29
-28 -8 -9 11 -9 15 -1 15 7 0 9 5 6 10 -3 6 -2 10 4 10 5 0 8 9 6 21 -3 13 0
19 8 16 7 -2 11 -13 10 -23z m161 10 c-11 -9 -13 -13 -6 -9 6 3 12 2 12 -3 0
-6 -7 -12 -15 -16 -8 -3 -14 -2 -14 2 4 22 -3 31 -18 25 -10 -4 -14 -2 -10 4
3 5 20 10 38 11 29 1 30 0 13 -14z m-67 -24 c1 -11 -2 -20 -5 -20 -4 0 -8 9
-9 20 -1 11 2 20 5 20 4 0 8 -9 9 -20z m28 -15 c-3 -28 7 -32 25 -10 7 8 17
15 23 15 7 0 7 -4 -1 -12 -7 -7 -8 -17 -2 -29 7 -12 6 -20 -2 -25 -7 -4 -8 -3
-4 4 4 7 2 12 -4 12 -6 0 -8 5 -4 11 4 7 1 10 -7 7 -8 -3 -13 -16 -12 -31 1
-15 -2 -27 -8 -27 -6 0 -7 5 -4 10 3 6 0 10 -7 10 -9 0 -9 3 2 10 8 5 10 10 5
10 -6 0 -11 16 -12 35 0 19 3 35 7 35 5 0 7 -11 5 -25z m-95 -39 c0 -5 -7 -3
-15 4 -8 7 -12 17 -9 22 7 10 24 -9 24 -26z m45 25 c3 -5 2 -12 -3 -15 -5 -3
-9 1 -9 9 0 17 3 19 12 6z m22 -33 c-3 -7 -5 -2 -5 12 0 14 2 19 5 13 2 -7 2
-19 0 -25z m150 -3 c0 -17 -13 -20 -21 -6 -4 5 0 12 6 14 7 3 13 6 14 6 0 1 1
-6 1 -14z m-77 -29 c0 -3 -4 -8 -10 -11 -5 -3 -10 -1 -10 4 0 6 5 11 10 11 6
0 10 -2 10 -4z m200 -6 c0 -5 -5 -10 -11 -10 -5 0 -7 5 -4 10 3 6 8 10 11 10
2 0 4 -4 4 -10z m-70 -138 c0 -7 -4 -10 -10 -7 -5 3 -10 16 -10 28 0 18 2 19
10 7 5 -8 10 -21 10 -28z m-220 -32 c0 -5 -7 -7 -15 -4 -8 4 -15 8 -15 10 0 2
7 4 15 4 8 0 15 -4 15 -10z m178 -53 c28 -27 28 -48 -2 -76 -18 -17 -36 -23
-66 -23 -51 1 -80 24 -80 64 0 60 96 83 148 35z m57 3 c9 -15 27 -12 19 3 -6
10 -4 10 7 0 10 -10 10 -16 1 -25 -7 -7 -12 -16 -12 -21 0 -5 9 1 19 14 26 32
34 21 18 -26 -18 -50 -41 -54 -44 -8 -1 19 -9 44 -19 54 -9 10 -12 19 -6 19 6
0 14 -4 17 -10z m132 -57 c-3 -10 -5 -2 -5 17 0 19 2 27 5 18 2 -10 2 -26 0
-35z m-137 12 c0 -14 -4 -25 -10 -25 -5 0 -10 11 -10 25 0 14 5 25 10 25 6 0
10 -11 10 -25z m-213 -21 c-9 -9 -28 6 -21 18 4 6 10 6 17 -1 6 -6 8 -13 4
-17z m321 -6 c-1 -18 -3 -27 -6 -20 -3 10 -7 10 -20 0 -11 -8 -10 -4 3 11 l20
24 -22 -7 c-18 -6 -22 -4 -17 8 3 9 14 16 24 16 15 0 18 -7 18 -32z m-365 -45
c-7 -2 -19 -2 -25 0 -7 3 -2 5 12 5 14 0 19 -2 13 -5z m124 1 c-3 -3 -12 -4
-19 -1 -8 3 -5 6 6 6 11 1 17 -2 13 -5z m121 -1 c-10 -2 -28 -2 -40 0 -13 2
-5 4 17 4 22 1 32 -1 23 -4z"/>
<path d="M1342 1505 c-1 -14 3 -25 9 -25 5 0 7 5 4 10 -3 6 -2 10 4 10 6 0 8
7 5 15 -9 23 -19 18 -22 -10z"/>
<path d="M1273 1151 c-4 -15 -2 -26 5 -29 7 -2 10 -7 7 -11 -6 -11 47 -1 63
12 25 20 5 48 -37 51 -26 2 -33 -2 -38 -23z m57 -12 c0 -5 -7 -9 -15 -9 -15 0
-20 12 -9 23 8 8 24 -1 24 -14z"/>
<path d="M1240 1731 c23 -7 23 -8 5 -13 -11 -3 -6 -3 10 -1 17 3 40 5 53 4 12
0 22 4 22 9 0 6 -26 10 -57 9 -43 -1 -51 -3 -33 -8z"/>
<path d="M1040 1680 c-13 -9 -12 -12 4 -25 11 -8 14 -15 8 -15 -7 0 -3 -9 8
-20 25 -25 29 -25 23 0 -3 11 -15 27 -26 35 -20 14 -20 14 4 24 13 5 17 10 9
10 -8 0 -22 -4 -30 -9z"/>
<path d="M1530 1686 c0 -2 8 -10 18 -17 15 -13 16 -12 3 4 -13 16 -21 21 -21
13z"/>
<path d="M1594 1651 c3 -5 -2 -12 -11 -15 -13 -5 -14 -9 -3 -19 10 -9 13 -9
17 1 3 6 9 9 15 6 6 -4 5 2 -1 15 -7 11 -14 21 -17 21 -3 0 -3 -4 0 -9z"/>
<path d="M986 1643 c-11 -11 -6 -21 9 -19 22 3 28 13 11 19 -8 3 -17 3 -20 0z"/>
<path d="M961 1603 c-1 -11 17 -25 44 -35 6 -1 9 -7 7 -11 -1 -4 7 -3 18 3 11
6 20 15 20 21 0 6 -5 7 -12 3 -8 -5 -9 -2 -5 9 4 11 1 17 -8 17 -8 0 -15 -4
-15 -10 0 -5 -5 -10 -11 -10 -5 0 -7 6 -3 13 6 9 4 9 -8 -1 -13 -10 -17 -10
-21 0 -4 9 -6 10 -6 1z"/>
<path d="M1543 1590 c-1 -13 4 -17 20 -14 12 2 16 2 9 -2 -6 -3 -9 -11 -5 -17
4 -7 0 -8 -13 -3 -15 6 -16 5 -7 -5 10 -10 17 -9 33 6 11 10 17 21 15 26 -3 4
0 11 6 15 8 4 9 3 5 -4 -4 -7 -3 -12 3 -12 12 0 26 20 14 21 -4 0 -24 2 -43 4
-29 3 -36 0 -37 -15z"/>
<path d="M1460 1473 c0 -12 20 -39 20 -28 0 6 4 4 9 -3 6 -10 11 -9 22 5 7 10
10 15 5 11 -5 -4 -15 -1 -23 7 -15 16 -33 20 -33 8z"/>
<path d="M1116 1338 c-14 -91 -14 -98 8 -98 16 0 18 2 7 9 -10 7 -12 22 -7 65
8 59 0 79 -8 24z"/>
<path d="M1461 1324 c0 -11 3 -14 6 -6 3 7 2 16 -1 19 -3 4 -6 -2 -5 -13z"/>
<path d="M1157 1311 c-4 -17 -3 -21 5 -13 5 5 8 16 6 23 -3 8 -7 3 -11 -10z"/>
<path d="M1484 1245 c10 -8 23 -12 29 -8 11 7 -12 23 -33 23 -12 -1 -11 -4 4
-15z"/>
<path d="M1011 1144 c0 -11 3 -14 6 -6 3 7 2 16 -1 19 -3 4 -6 -2 -5 -13z"/>
<path d="M1257 980 c3 -11 7 -20 9 -20 2 0 4 9 4 20 0 11 -4 20 -9 20 -5 0 -7
-9 -4 -20z"/>
<path d="M1532 980 c0 -14 2 -19 5 -12 2 6 2 18 0 25 -3 6 -5 1 -5 -13z"/>
<path d="M1067 975 c-4 -8 -3 -16 1 -19 4 -3 9 4 9 15 2 23 -3 25 -10 4z"/>
<path d="M1101 974 c0 -11 3 -14 6 -6 3 7 2 16 -1 19 -3 4 -6 -2 -5 -13z"/>
<path d="M1226 975 c-3 -8 -1 -15 4 -15 13 0 22 18 11 24 -5 3 -11 -1 -15 -9z"/>
<path d="M1311 974 c0 -11 3 -14 6 -6 3 7 2 16 -1 19 -3 4 -6 -2 -5 -13z"/>
<path d="M1446 981 c-3 -5 1 -12 10 -15 22 -8 25 -4 9 11 -8 7 -16 9 -19 4z"/>
<path d="M1121 964 c0 -11 3 -14 6 -6 3 7 2 16 -1 19 -3 4 -6 -2 -5 -13z"/>
<path d="M824 889 c-3 -6 -1 -16 5 -22 9 -9 11 -8 6 5 -4 11 0 18 12 21 15 4
16 5 1 6 -9 0 -20 -4 -24 -10z"/>
<path d="M885 890 c-4 -7 -2 -17 4 -23 9 -9 11 -8 6 6 -5 11 -2 17 8 17 9 0
18 -8 21 -17 4 -14 4 -14 3 2 -2 22 -31 32 -42 15z"/>
<path d="M950 883 c6 -13 15 -23 19 -23 11 0 24 31 16 38 -2 3 -7 -3 -11 -12
-6 -15 -7 -15 -21 1 -13 16 -13 16 -3 -4z"/>
<path d="M1000 880 c0 -14 5 -18 16 -13 11 4 12 8 4 13 -9 6 -9 9 1 13 10 4 9
6 -3 6 -12 1 -18 -6 -18 -19z"/>
<path d="M1050 883 c0 -12 7 -19 19 -19 23 0 21 30 -2 34 -11 2 -17 -3 -17
-15z"/>
<path d="M1100 878 c0 -17 3 -19 9 -9 6 9 11 10 15 2 4 -6 11 -11 17 -11 5 0
0 9 -11 20 -26 26 -30 25 -30 -2z"/>
<path d="M1166 883 c-4 -9 -4 -18 -1 -21 3 -3 5 1 5 9 0 12 2 12 10 -1 5 -8
12 -11 16 -8 3 4 0 14 -9 22 -13 14 -16 14 -21 -1z"/>
<path d="M1200 893 c0 -5 5 -15 10 -23 8 -12 10 -11 10 8 0 12 -4 22 -10 22
-5 0 -10 -3 -10 -7z"/>
<path d="M1240 880 c0 -14 5 -18 16 -13 11 4 12 8 4 13 -9 6 -9 9 1 13 10 4 9
6 -3 6 -12 1 -18 -6 -18 -19z"/>
<path d="M1280 878 c0 -17 3 -19 9 -9 6 9 11 10 15 2 12 -19 26 -12 25 12 0
20 -1 20 -8 3 -7 -18 -8 -18 -14 -3 -9 25 -27 21 -27 -5z"/>
<path d="M1346 892 c6 -4 13 -14 16 -22 3 -10 6 -8 10 8 5 18 2 22 -15 22 -13
0 -17 -3 -11 -8z"/>
<path d="M1415 890 c-4 -7 -2 -17 5 -23 9 -9 11 -9 8 2 -5 21 20 25 26 4 4
-15 5 -15 3 2 -2 22 -31 32 -42 15z"/>
<path d="M1480 880 c0 -14 5 -18 16 -13 11 4 12 8 4 13 -9 6 -9 9 1 13 10 4 9
6 -3 6 -12 1 -18 -6 -18 -19z"/>
<path d="M1552 880 c0 -14 2 -19 5 -12 2 6 2 18 0 25 -3 6 -5 1 -5 -13z"/>
<path d="M1570 878 c0 -19 2 -20 10 -8 13 19 13 30 0 30 -5 0 -10 -10 -10 -22z"/>
<path d="M1630 881 c0 -12 4 -21 10 -21 5 0 7 7 4 15 -4 10 0 15 11 15 11 0
15 -5 11 -15 -3 -8 -1 -15 5 -15 20 0 3 35 -19 38 -17 3 -22 -2 -22 -17z"/>
<path d="M1727 878 c-6 -21 -5 -22 8 -5 12 16 14 17 18 3 4 -14 5 -14 3 0 -2
27 -23 28 -29 2z"/>
<path d="M1602 883 c-6 -2 -10 -9 -6 -14 8 -14 21 -11 21 6 0 8 -1 15 -1 14
-1 0 -7 -3 -14 -6z"/>
<path d="M1690 875 c0 -8 4 -15 8 -15 5 0 9 7 9 15 0 8 -4 15 -9 15 -4 0 -8
-7 -8 -15z"/>
<path d="M855 870 c3 -5 8 -10 11 -10 2 0 4 5 4 10 0 6 -5 10 -11 10 -5 0 -7
-4 -4 -10z"/>
<path d="M458 764 c-15 -8 -30 -25 -33 -37 -3 -12 -4 -96 -3 -187 l3 -165 50
0 50 0 3 203 2 202 -22 0 c-13 -1 -35 -7 -50 -16z"/>
<path d="M580 613 l0 -168 48 0 47 0 3 168 2 167 -50 0 -50 0 0 -167z"/>
<path d="M730 588 c0 -137 3 -197 12 -206 7 -7 31 -12 55 -12 l43 0 0 183 c0
206 -2 212 -74 224 l-36 6 0 -195z"/>
<path d="M933 772 c-7 -4 -19 -24 -28 -45 l-15 -37 195 0 195 0 0 45 0 45
-167 0 c-93 0 -173 -4 -180 -8z"/>
<path d="M1390 773 c-8 -3 -25 -15 -37 -26 -22 -20 -23 -26 -23 -204 l0 -184
53 3 52 3 0 205 c0 216 -1 220 -45 203z"/>
<path d="M1490 609 l0 -170 48 3 47 3 3 159 c3 176 3 176 -60 176 l-38 0 0
-171z"/>
<path d="M1640 569 l0 -210 53 3 52 3 3 160 c4 226 2 234 -75 248 l-33 7 0
-211z"/>
<path d="M1818 768 c-14 -12 -38 -68 -38 -89 0 -5 86 -9 190 -9 l190 0 0 55 0
55 -163 0 c-116 0 -168 -4 -179 -12z"/>
<path d="M890 613 c0 -10 9 -32 19 -49 15 -25 27 -32 66 -37 78 -11 293 -8
300 4 12 18 -16 69 -46 84 -21 11 -67 15 -184 15 -141 0 -155 -2 -155 -17z"/>
<path d="M1780 591 c0 -21 6 -44 14 -50 10 -9 59 -11 163 -9 l148 3 3 48 3 47
-165 0 -166 0 0 -39z"/>
<path d="M906 477 c-13 -10 -17 -24 -14 -57 l3 -45 164 -3 c133 -2 168 0 187
13 28 18 44 83 23 96 -23 15 -342 11 -363 -4z"/>
<path d="M1780 461 c0 -25 25 -72 45 -85 32 -21 317 -24 332 -3 6 6 8 31 5 55
l-4 42 -189 0 c-104 0 -189 -4 -189 -9z"/>
<path d="M415 320 c-3 -6 0 -12 7 -15 7 -3 404 -4 882 -3 685 2 870 6 874 16
5 16 -1753 18 -1763 2z"/>
<path d="M240 230 c0 -11 2 -20 4 -20 2 0 6 9 9 20 3 11 1 20 -4 20 -5 0 -9
-9 -9 -20z"/>
<path d="M270 235 c-7 -9 -10 -18 -7 -22 4 -3 10 2 14 12 6 18 7 18 14 -1 7
-17 8 -17 8 4 1 26 -11 29 -29 7z"/>
<path d="M312 230 c0 -14 2 -19 5 -12 2 6 2 18 0 25 -3 6 -5 1 -5 -13z"/>
<path d="M341 226 c0 -11 3 -15 6 -8 3 9 9 10 18 2 9 -8 14 -6 18 9 3 14 -1
19 -19 19 -18 0 -24 -6 -23 -22z"/>
<path d="M402 230 c0 -14 2 -19 5 -12 2 6 2 18 0 25 -3 6 -5 1 -5 -13z"/>
<path d="M430 241 c0 -6 6 -11 13 -11 8 0 7 -4 -3 -10 -13 -8 -12 -10 3 -10
21 0 22 13 2 30 -10 9 -15 9 -15 1z"/>
<path d="M492 230 c0 -14 2 -19 5 -12 2 6 2 18 0 25 -3 6 -5 1 -5 -13z"/>
<path d="M532 230 c0 -14 2 -19 5 -12 2 6 2 18 0 25 -3 6 -5 1 -5 -13z"/>
<path d="M551 234 c0 -11 3 -14 6 -6 3 7 2 16 -1 19 -3 4 -6 -2 -5 -13z"/>
<path d="M588 228 c6 -23 8 -23 14 0 3 11 0 19 -7 19 -7 0 -10 -8 -7 -19z"/>
<path d="M652 233 c2 -10 12 -18 23 -18 11 0 21 8 23 18 2 9 -1 17 -7 17 -6 0
-8 -7 -5 -15 4 -10 0 -15 -11 -15 -11 0 -15 5 -11 15 3 8 1 15 -5 15 -6 0 -9
-8 -7 -17z"/>
<path d="M713 231 c1 -15 4 -17 14 -9 7 5 10 14 7 19 -10 16 -23 9 -21 -10z"/>
<path d="M781 226 c1 -19 2 -19 6 -2 4 15 7 16 14 5 8 -12 10 -12 18 0 7 11
10 10 14 -5 4 -17 5 -17 6 2 1 17 -5 21 -29 21 -24 0 -30 -4 -29 -21z"/>
<path d="M862 230 c0 -14 2 -19 5 -12 2 6 2 18 0 25 -3 6 -5 1 -5 -13z"/>
<path d="M885 240 c-9 -15 4 -30 23 -29 15 1 14 2 -1 6 -11 3 -16 11 -13 19 6
16 0 19 -9 4z"/>
<path d="M941 226 c0 -12 3 -15 6 -8 2 6 9 10 14 6 5 -3 9 1 9 9 0 7 -7 14
-15 14 -9 0 -15 -9 -14 -21z"/>
<path d="M991 238 c-2 -24 18 -33 36 -15 10 10 12 17 4 22 -6 3 -10 1 -9 -6 5
-19 -20 -22 -25 -2 -4 16 -5 16 -6 1z"/>
<path d="M1104 235 c13 -10 15 -15 6 -15 -7 0 -11 -3 -7 -6 3 -3 11 -3 17 1
13 8 -5 35 -24 35 -6 0 -2 -7 8 -15z"/>
<path d="M1141 226 c1 -19 2 -19 6 -2 4 15 7 16 14 5 8 -12 10 -12 18 0 7 11
10 10 14 -5 4 -17 5 -17 6 2 1 17 -5 21 -29 21 -24 0 -30 -4 -29 -21z"/>
<path d="M1218 233 c-4 -14 1 -18 19 -18 15 0 21 5 18 13 -3 8 -5 16 -5 18 0
13 -28 1 -32 -13z"/>
<path d="M1271 233 c-1 -16 5 -23 17 -23 10 0 13 3 6 8 -6 4 -14 14 -17 22 -4
10 -6 8 -6 -7z"/>
<path d="M1321 233 c-1 -16 5 -23 17 -23 10 0 13 3 6 8 -6 4 -14 14 -17 22 -4
10 -6 8 -6 -7z"/>
<path d="M1386 234 c-3 -8 0 -16 7 -20 7 -4 9 -4 5 1 -4 4 0 13 8 20 15 11 15
12 1 12 -9 0 -18 -6 -21 -13z"/>
<path d="M1470 244 c0 -3 7 -12 15 -20 16 -17 18 -14 9 10 -6 15 -24 23 -24
10z"/>
<path d="M1500 241 c0 -6 5 -13 10 -16 6 -3 10 1 10 9 0 9 -4 16 -10 16 -5 0
-10 -4 -10 -9z"/>
<path d="M1540 230 c0 -13 6 -20 18 -19 12 0 13 2 3 6 -10 4 -10 7 -1 13 8 5
7 9 -4 13 -11 5 -16 1 -16 -13z"/>
<path d="M1591 232 c-1 -17 4 -23 16 -20 10 2 18 11 19 21 1 12 1 13 -3 2 -6
-20 -20 -19 -26 3 -3 12 -5 11 -6 -6z"/>
<path d="M1652 230 c0 -14 2 -19 5 -12 2 6 2 18 0 25 -3 6 -5 1 -5 -13z"/>
<path d="M1681 232 c-1 -17 4 -23 16 -20 10 2 18 11 19 21 1 12 1 13 -3 2 -6
-20 -20 -19 -26 3 -3 12 -5 11 -6 -6z"/>
<path d="M1740 241 c0 -5 7 -14 15 -21 16 -14 18 -10 9 14 -6 17 -24 22 -24 7z"/>
<path d="M1770 243 c0 -5 5 -15 10 -23 8 -12 10 -11 10 8 0 12 -4 22 -10 22
-5 0 -10 -3 -10 -7z"/>
<path d="M1830 230 c0 -13 6 -20 18 -19 12 0 13 2 3 6 -10 4 -10 7 -1 13 8 5
7 9 -4 13 -11 5 -16 1 -16 -13z"/>
<path d="M1880 228 c0 -19 2 -20 10 -8 13 19 13 30 0 30 -5 0 -10 -10 -10 -22z"/>
<path d="M1907 235 c-4 -8 -2 -17 3 -20 6 -4 10 3 10 14 0 25 -6 27 -13 6z"/>
<path d="M1952 230 c0 -14 2 -19 5 -12 2 6 2 18 0 25 -3 6 -5 1 -5 -13z"/>
<path d="M1990 230 c0 -13 6 -20 18 -19 12 0 13 2 3 6 -10 4 -10 7 -1 13 8 5
7 9 -4 13 -11 5 -16 1 -16 -13z"/>
<path d="M2037 234 c3 -7 9 -12 13 -9 5 3 11 -1 13 -7 3 -7 6 -4 6 7 1 14 -6
21 -18 22 -13 1 -18 -3 -14 -13z"/>
<path d="M2092 230 c0 -14 2 -19 5 -12 2 6 2 18 0 25 -3 6 -5 1 -5 -13z"/>
<path d="M2110 239 c0 -5 5 -7 10 -4 6 3 10 8 10 11 0 2 -4 4 -10 4 -5 0 -10
-5 -10 -11z"/>
<path d="M2141 225 c0 -11 3 -14 6 -7 4 10 8 10 18 2 11 -9 14 -7 12 7 -2 26
-37 25 -36 -2z"/>
<path d="M2192 230 c0 -14 2 -19 5 -12 2 6 2 18 0 25 -3 6 -5 1 -5 -13z"/>
<path d="M2228 238 c10 -13 10 -17 0 -21 -8 -4 -7 -6 5 -6 9 -1 17 3 17 8 0 5
-8 15 -17 22 -16 13 -17 12 -5 -3z"/>
<path d="M2271 233 c-1 -16 5 -23 17 -23 10 0 13 3 6 8 -6 4 -14 14 -17 22 -4
10 -6 8 -6 -7z"/>
<path d="M2320 241 c0 -6 6 -11 13 -11 8 0 7 -4 -3 -10 -9 -6 -10 -10 -3 -10
19 0 24 17 8 30 -10 9 -15 9 -15 1z"/>
<path d="M1410 220 c0 -5 5 -10 10 -10 6 0 10 5 10 10 0 6 -4 10 -10 10 -5 0
-10 -4 -10 -10z"/>
</g>
</svg>
